<svg width="1320" height="334" viewBox="0 0 1320 334" fill="none" xmlns="http://www.w3.org/2000/svg">
<path d="M277.895 0.475828H185.224L81.6324 151.752V0.475828H0V333.474H81.6324V176.965L211.003 333.474H319.579L175.409 156.985L277.895 0.475828Z" fill="white"/>
<path d="M651.685 167.213C651.685 82.5367 580.078 0.000106008 465.029 0.000106008C340.909 0.000106008 277.895 91.5752 277.895 167.213C277.895 251.89 350.934 333.474 463.597 333.474C590.103 333.474 651.685 242.376 651.685 167.213ZM567.666 169.119C567.666 233.34 508.757 267.826 456.722 267.826C418.054 267.826 362.391 246.183 362.391 168.643C362.391 104.421 406.311 69.0768 464.551 69.0768C528.043 69.0768 567.666 108.704 567.666 169.119Z" fill="white"/>
<path d="M680.842 0.000106008V166.737V333.474H755.791H830.74C867.499 333.474 887.071 330.62 909.031 318.251C944.835 298.271 958.737 264.753 958.737 236.211C958.737 173.892 903.78 156.033 886.594 150.801C916.669 135.578 930.513 108.938 930.513 85.6282C930.513 57.0855 910.94 18.5529 868.453 6.18436C846.494 0.000106008 828.353 0.000106008 804.962 0.000106008H680.842ZM795.414 62.794C813.077 62.794 848.881 62.794 848.881 97.9967C848.881 133.675 812.6 133.675 793.982 133.675H763.429V62.794H795.414ZM799.71 192.187C833.127 192.187 871.795 192.188 871.795 231.672C871.795 270.204 831.695 270.204 803.529 270.204H763.429V192.187H799.71Z" fill="white"/>
<path d="M1320 0.000106008H1236.63V165.548C1236.63 194.09 1235.41 208.044 1229.68 222.316C1218.89 249.2 1185.25 264 1153.26 264C1121.28 264 1090.62 249.877 1076.84 222.316C1069.89 208.421 1069.89 178.867 1069.89 165.548V0L986.526 0.000106008V183.625C986.526 235.953 998.461 258.787 1011.35 275.913C1055.27 332.522 1129.52 333.474 1154.83 333.474C1204.95 333.474 1258.42 321.105 1291.83 281.146C1319.52 247.37 1320 206.935 1320 181.246V0.000106008Z" fill="white"/>
</svg>
